<svg width="36" height="36" viewBox="0 0 36 36" fill="none" xmlns="http://www.w3.org/2000/svg">
<circle cx="18" cy="18" r="17.25" stroke="white" stroke-width="1.5"/>
<path d="M13.0001 24.666L12.1667 25.4993M23.0001 24.666L23.8334 25.4993" stroke="white" stroke-width="1.5" stroke-linecap="round"/>
<path d="M10.5 18V18.8333C10.5 21.5832 10.5 22.9581 11.3543 23.8124C12.2085 24.6667 13.5835 24.6667 16.3333 24.6667H19.6667C22.4165 24.6667 23.7914 24.6667 24.6457 23.8124C25.5 22.9581 25.5 21.5832 25.5 18.8333V18" stroke="white" stroke-width="1.5" stroke-linecap="round" stroke-linejoin="round"/>
<path d="M9.66675 18H26.3334" stroke="white" stroke-width="1.5" stroke-linecap="round"/>
<path d="M11.3333 18V12.6028C11.3333 11.4415 12.2747 10.5 13.4361 10.5C14.368 10.5 15.1887 11.1133 15.4527 12.007L15.4999 12.1667" stroke="white" stroke-width="1.5" stroke-linecap="round"/>
<path d="M14.6667 13.0007L16.7501 11.334" stroke="white" stroke-width="1.5" stroke-linecap="round"/>
</svg>
