<svg width="36" height="36" viewBox="0 0 36 36" fill="none" xmlns="http://www.w3.org/2000/svg">
<circle cx="18" cy="18" r="17.25" stroke="white" stroke-width="1.5"/>
<path d="M26.3334 22.584H9.66675" stroke="white" stroke-width="1.5" stroke-linecap="round" stroke-linejoin="round"/>
<path d="M26.3334 25.5V21.3333C26.3334 19.762 26.3334 18.9763 25.8452 18.4882C25.3571 18 24.5714 18 23.0001 18H13.0001C11.4287 18 10.6431 18 10.1549 18.4882C9.66675 18.9763 9.66675 19.762 9.66675 21.3333V25.5" stroke="white" stroke-width="1.5" stroke-linecap="round" stroke-linejoin="round"/>
<path d="M21.3334 18V16.8482C21.3334 16.4252 21.2572 16.2838 20.8664 16.1171C20.0527 15.7699 19.0649 15.5 18.0001 15.5C16.9352 15.5 15.9475 15.7699 15.1337 16.1171C14.743 16.2838 14.6667 16.4252 14.6667 16.8482V18" stroke="white" stroke-width="1.5" stroke-linecap="round"/>
<path d="M10.5 18V15.5C10.5 14.3215 10.5 13.7322 10.8661 13.3661C11.2322 13 11.8215 13 13 13C13.229 13 13.5474 13.0606 13.7524 12.9501C13.8449 12.9002 13.9279 12.7741 14.0939 12.5218C14.891 11.3104 16.5205 10.5 18 10.5C19.4795 10.5 21.109 11.3104 21.9061 12.5218C22.0721 12.7741 22.1551 12.9002 22.2477 12.9501C22.4527 13.0606 22.771 13 23 13C24.1785 13 24.7677 13 25.1339 13.3661C25.5 13.7322 25.5 14.3215 25.5 15.5V18" stroke="white" stroke-width="1.5"/>
</svg>
