<svg width="16" height="16" viewBox="0 0 16 16" fill="none" xmlns="http://www.w3.org/2000/svg">
<path fill-rule="evenodd" clip-rule="evenodd" d="M8 13.5C8 13.2239 8.26862 13 8.6 13H13.4C13.7314 13 14 13.2239 14 13.5C14 13.7761 13.7314 14 13.4 14H8.6C8.26862 14 8 13.7761 8 13.5Z" fill="#202E47"/>
<path d="M11.9431 2.26787C11.2726 1.89966 10.4594 1.91181 9.80014 2.29963C9.59082 2.42277 9.39752 2.60622 9.15424 2.86154C9.05077 2.97013 8.99901 3.02442 9.00001 3.09139C9.00102 3.15836 9.05489 3.21167 9.1627 3.31828L12.7199 6.83656C12.83 6.94545 12.885 6.99989 12.954 7C13.0229 7.00016 13.0775 6.94666 13.1866 6.83964C13.4208 6.61 13.5906 6.42382 13.7061 6.22335C14.0866 5.56305 14.0983 4.7512 13.7373 4.0801C13.5868 3.80037 13.3334 3.54449 12.9548 3.16216L12.8523 3.05862C12.475 2.67712 12.2213 2.4206 11.9431 2.26787Z" fill="#202E47"/>
<path d="M11.8271 8.14473C11.9419 8.03329 11.9993 7.97756 12 7.90727C12.0007 7.83697 11.9443 7.78018 11.8315 7.66656L8.36342 4.17233C8.24848 4.05651 8.19101 3.9986 8.12019 4.00003C8.04936 4.00145 7.99422 4.06163 7.884 4.182L3.60243 8.8558C2.98171 9.53319 2.60127 9.94833 2.37858 10.4648C2.15631 10.9802 2.11254 11.5473 2.04097 12.4747L2.04085 12.4763C2.04072 12.4779 1.99347 13.0869 2.00077 13.2188C2.00902 13.3681 2.04432 13.5496 2.18188 13.7069C2.32066 13.8656 2.4961 13.9226 2.64381 13.9475C2.77229 13.9691 3.35095 13.9843 3.35212 13.9843C4.40347 14.0122 5.0534 14.0295 5.65106 13.7942C6.24788 13.5594 6.71952 13.1015 7.48476 12.3586L11.8271 8.14473Z" fill="#202E47"/>
</svg>
