<svg width="38" height="36" viewBox="0 0 38 36" fill="none" xmlns="http://www.w3.org/2000/svg">
<path d="M36.4523 18C36.4523 27.519 28.6466 35.25 19.0001 35.25C9.35357 35.25 1.54785 27.519 1.54785 18C1.54785 8.48097 9.35357 0.75 19.0001 0.75C28.6466 0.75 36.4523 8.48097 36.4523 18Z" stroke="white" stroke-width="1.5"/>
<path d="M27.4269 25.5V16.0089C27.4269 14.9064 27.4269 14.3552 27.1371 13.9283C26.8474 13.5014 26.3343 13.2967 25.3081 12.8872L20.2519 10.87C19.6337 10.6233 19.3246 10.5 19 10.5C18.6754 10.5 18.3663 10.6233 17.7481 10.87L12.6919 12.8872C11.6657 13.2967 11.1525 13.5014 10.8628 13.9283C10.573 14.3552 10.573 14.9064 10.573 16.0089V25.5" stroke="white" stroke-width="1.5" stroke-linecap="round" stroke-linejoin="round"/>
<path d="M22.3707 23.834V25.5007M15.6292 23.834V25.5007" stroke="white" stroke-width="1.5" stroke-linecap="round" stroke-linejoin="round"/>
<path d="M15.208 19.6673L15.4124 18.8589C15.719 17.6462 15.8722 17.04 16.3294 16.687C16.7866 16.334 17.4186 16.334 18.6825 16.334H19.3178C20.5817 16.334 21.2137 16.334 21.6709 16.687C22.1281 17.04 22.2814 17.6462 22.5879 18.8589L22.7923 19.6673" stroke="white" stroke-width="1.5" stroke-linecap="round" stroke-linejoin="round"/>
<path d="M23.2135 19.666H14.7865C14.3211 19.666 13.9438 20.0391 13.9438 20.4993V22.9993C13.9438 23.4596 14.3211 23.8327 14.7865 23.8327H23.2135C23.6789 23.8327 24.0562 23.4596 24.0562 22.9993V20.4993C24.0562 20.0391 23.6789 19.666 23.2135 19.666Z" stroke="white" stroke-width="1.5" stroke-linecap="round" stroke-linejoin="round"/>
<path d="M16.0505 21.7422V21.7505" stroke="white" stroke-width="1.5" stroke-linecap="round" stroke-linejoin="round"/>
<path d="M21.9495 21.7422V21.7505" stroke="white" stroke-width="1.5" stroke-linecap="round" stroke-linejoin="round"/>
</svg>
