<svg width="36" height="36" viewBox="0 0 36 36" fill="none" xmlns="http://www.w3.org/2000/svg">
<circle cx="18" cy="18" r="17.25" stroke="white" stroke-width="1.5"/>
<path d="M10.084 15.916H19.2507" stroke="white" stroke-width="1.5" stroke-linecap="round" stroke-linejoin="round"/>
<path d="M22.584 15.916H25.9173" stroke="white" stroke-width="1.5" stroke-linecap="round" stroke-linejoin="round"/>
<path d="M15.916 25.916V15.916" stroke="white" stroke-width="1.5"/>
<path d="M15.916 13.4173V10.084" stroke="white" stroke-width="1.5" stroke-linecap="round" stroke-linejoin="round"/>
<path d="M22.1673 22.1673C20.5007 22.1673 18.834 23.5192 18.834 25.9173H16.7507C13.608 25.9173 12.0366 25.9173 11.0603 24.941C10.084 23.9647 10.084 22.3933 10.084 19.2507V16.7507C10.084 13.608 10.084 12.0366 11.0603 11.0603C12.0366 10.084 13.608 10.084 16.7507 10.084H19.2507C22.3933 10.084 23.9647 10.084 24.941 11.0603C25.9173 12.0366 25.9173 13.608 25.9173 16.7507V22.87C25.9173 24.553 24.553 25.9173 22.87 25.9173" stroke="white" stroke-width="1.5" stroke-linecap="round" stroke-linejoin="round"/>
</svg>
